<svg xmlns="http://www.w3.org/2000/svg" viewBox="0 0 342.43 67.09"><defs><style>.cls-1{fill:#04aaff;}.cls-2{fill:#24b5ff;}</style></defs><g id="Layer_2" data-name="Layer 2"><g id="Layer_1-2" data-name="Layer 1"><path class="cls-1" d="M46.56,53.22a19.89,19.89,0,0,0,6.85-1.09A17.26,17.26,0,0,0,57.82,50l4,7.89a19.35,19.35,0,0,1-5.87,3A29.1,29.1,0,0,1,46,62.37a26.63,26.63,0,0,1-10.11-1.91,25.68,25.68,0,0,1-8.26-5.33,24.67,24.67,0,0,1-7.56-18,25.14,25.14,0,0,1,2-10A24.53,24.53,0,0,1,27.56,19a25.6,25.6,0,0,1,8.28-5.37A26.63,26.63,0,0,1,46,11.7a29.1,29.1,0,0,1,9.94,1.52,19.35,19.35,0,0,1,5.87,3l-4,7.89a17.26,17.26,0,0,0-4.41-2.17,20.13,20.13,0,0,0-6.85-1.09,18.18,18.18,0,0,0-7,1.26,14.87,14.87,0,0,0-5.18,3.5,15.28,15.28,0,0,0-3.24,5.17A17.16,17.16,0,0,0,30,37a17.48,17.48,0,0,0,1.12,6.28,15.22,15.22,0,0,0,3.24,5.18A14.74,14.74,0,0,0,39.58,52,18.18,18.18,0,0,0,46.56,53.22Z" transform="translate(0 -11.7)"/><path class="cls-1" d="M68.75,12.59H87.56A16,16,0,0,1,95,14.31a13.12,13.12,0,0,1,5.24,5,15.33,15.33,0,0,1,1.94,7.91,15,15,0,0,1-1.7,7.54,12.23,12.23,0,0,1-4.1,4.42A10.75,10.75,0,0,1,92,40.89l12,20.59H93.52L82.67,41.59H78V61.48H68.75ZM78,35.07h6.3a10.12,10.12,0,0,0,6-1.74q2.46-1.74,2.46-5.85c0-2.74-.82-4.67-2.44-5.8A10.22,10.22,0,0,0,84.34,20H78Z" transform="translate(0 -11.7)"/><path class="cls-1" d="M109.71,37a26.18,26.18,0,0,1,1.87-9.95,24.68,24.68,0,0,1,5.24-8,24,24,0,0,1,7.91-5.37,25.95,25.95,0,0,1,19.64,0A23.74,23.74,0,0,1,152.24,19a24.6,24.6,0,0,1,5.21,8.05,26.56,26.56,0,0,1,1.85,10,27,27,0,0,1-1.82,10,24.35,24.35,0,0,1-5.14,8.07,23.66,23.66,0,0,1-7.85,5.39,26.92,26.92,0,0,1-20,0,23.16,23.16,0,0,1-7.85-5.39A24.3,24.3,0,0,1,111.5,47,27.39,27.39,0,0,1,109.71,37Zm9.63,0a18.24,18.24,0,0,0,1.94,8.44,15.28,15.28,0,0,0,5.35,6,15.22,15.22,0,0,0,15.8,0,15.05,15.05,0,0,0,5.35-6A18.36,18.36,0,0,0,149.71,37a18.29,18.29,0,0,0-1.93-8.43,15.32,15.32,0,0,0-5.35-6,15.17,15.17,0,0,0-15.8,0,15.56,15.56,0,0,0-5.35,6A18.17,18.17,0,0,0,119.34,37Z" transform="translate(0 -11.7)"/><path class="cls-1" d="M174.63,21.15l.63.11V61.48H166V12.59h12.74l21.93,40.15-.63.15V12.59h9.22V61.48H196.48Z" transform="translate(0 -11.7)"/><path class="cls-1" d="M218.74,12.59H228V61.48h-9.26Z" transform="translate(0 -11.7)"/><path class="cls-1" d="M263.59,35.18l18.15,26.3h-12L257.37,42.85,245.3,61.48H234.15l17.37-26.3L235.78,12.59h11.74L257.74,28l10.07-15.45h11.26Z" transform="translate(0 -11.7)"/><path class="cls-2" d="M341.93,74.55c.5.12.41-.52.5-.63C341.57,74,341.93,74.71,341.93,74.55Z" transform="translate(0 -11.7)"/><polygon class="cls-2" points="333.44 63.14 333.62 62.91 332.31 63.36 333.44 63.14"/><path class="cls-2" d="M325.69,73.79c.59,1.16,2.83.2,4.16.77l.2.27.73-.77C329.09,74,326.83,74.24,325.69,73.79Z" transform="translate(0 -11.7)"/><path class="cls-2" d="M321.85,70.93c.2.45-.94.24.95.26l-.17-.13A5.78,5.78,0,0,1,321.85,70.93Z" transform="translate(0 -11.7)"/><path class="cls-2" d="M322.63,71.06c.83.08-.49-.42,0,0Z" transform="translate(0 -11.7)"/><path class="cls-2" d="M318.82,70.84l1.13-.25c-.2-.27-1.15-.43-.77-.57C318,70.09,318.24,70.36,318.82,70.84Z" transform="translate(0 -11.7)"/><path class="cls-2" d="M317.7,71.49l.58-.09C318.2,71.29,318.05,71.24,317.7,71.49Z" transform="translate(0 -11.7)"/><path class="cls-2" d="M319.51,71.21l-1.23.19c.14.19.11.54.56-.05C318.7,71.65,319,71.38,319.51,71.21Z" transform="translate(0 -11.7)"/><path class="cls-2" d="M320.16,71.45c.58.3,1.34.54.21.78C322.45,72.33,322.24,71.54,320.16,71.45Z" transform="translate(0 -11.7)"/><path class="cls-2" d="M325.15,74.83l.77.42.74-.26C326.29,75.12,325.15,74.49,325.15,74.83Z" transform="translate(0 -11.7)"/><path class="cls-2" d="M312.16,69.51c-.09.21.29.64.34.94l.83-.17C312.93,70.08,312.17,69.85,312.16,69.51Z" transform="translate(0 -11.7)"/><path class="cls-2" d="M312.5,70.45l-1.24.25C312.32,70.87,312.54,70.71,312.5,70.45Z" transform="translate(0 -11.7)"/><polygon class="cls-2" points="317.37 60.95 319.42 60.36 316.99 60.92 317.37 60.95"/><polygon class="cls-2" points="307.6 57.24 308.34 56.8 307.05 57.45 307.6 57.24"/><path class="cls-2" d="M304.57,68.69c.55-.38-.61-.82-.05-1a5.76,5.76,0,0,0-2.24.53A3.54,3.54,0,0,1,304.57,68.69Z" transform="translate(0 -11.7)"/><path class="cls-2" d="M301.17,68.57a6.86,6.86,0,0,0,1.11-.37A3.3,3.3,0,0,0,301.17,68.57Z" transform="translate(0 -11.7)"/><path class="cls-2" d="M309.24,70.35a1.29,1.29,0,0,0-.86-.75l.39.69Z" transform="translate(0 -11.7)"/><path class="cls-2" d="M308.79,70.31l0,0-1-.16Z" transform="translate(0 -11.7)"/><path class="cls-2" d="M309.36,70.37l-.12,0C309.28,70.42,309.3,70.44,309.36,70.37Z" transform="translate(0 -11.7)"/><path class="cls-2" d="M314.31,71.71c-.74.28-2.24.49-.9,1.2C314,72.53,313.19,72.13,314.31,71.71Z" transform="translate(0 -11.7)"/><path class="cls-2" d="M309.85,71.23l1.25.29c0-.17-.21-.44.16-.57Z" transform="translate(0 -11.7)"/><polygon class="cls-2" points="309.21 59.66 309.85 59.53 309.39 59.42 309.21 59.66"/><path class="cls-2" d="M303.27,69.42a4.72,4.72,0,0,1-1.86.13,14.2,14.2,0,0,0,2.17.45C303.7,69.81,304.05,69.48,303.27,69.42Z" transform="translate(0 -11.7)"/><path class="cls-2" d="M306,69.91l-.13,0C305.89,70,306,70,306,69.91Z" transform="translate(0 -11.7)"/><polygon class="cls-2" points="294.75 57.17 294.84 57.3 294.88 57.19 294.75 57.17"/><path class="cls-2" d="M303.69,70.13a1.42,1.42,0,0,0,1.2-.09,11.82,11.82,0,0,1-1.31,0C303.52,70.08,303.51,70.14,303.69,70.13Z" transform="translate(0 -11.7)"/><path class="cls-2" d="M299.28,68.67a6.84,6.84,0,0,0,.9.44C299.93,68.88,299.39,68.51,299.28,68.67Z" transform="translate(0 -11.7)"/><path class="cls-2" d="M305.66,69.73l.08,0C305.58,69.55,305.59,69.62,305.66,69.73Z" transform="translate(0 -11.7)"/><path class="cls-2" d="M305.66,69.73a3.1,3.1,0,0,0-.77.31,6.25,6.25,0,0,0,.93-.11A.78.78,0,0,1,305.66,69.73Z" transform="translate(0 -11.7)"/><path class="cls-2" d="M292.32,72.77c.15-.58,1.64-1,2.81-.23,1.26-.33.67-2.35-.29-3.54-.06.25-.08.49-1.37.72.4.36,2.7,1,1.59,1.46-1.69.14-1.34-.35-2.11-.74.61.81-2.22.87-2,2l1.49-.24C292.48,72.36,291.93,72.58,292.32,72.77Z" transform="translate(0 -11.7)"/><path class="cls-2" d="M297.23,69.29l.52,0a5,5,0,0,1-1.7-1c-.89.21-1.09.41-1.17.6l2.53.33Z" transform="translate(0 -11.7)"/><path class="cls-2" d="M300.07,69.5c-.47.6-1.74.75-1.06,1.52,1.52.1,1.12-.43,2.05-.61-2.45-.11.74-.28-1-.84a7.48,7.48,0,0,1,1.33,0c-.43-.13-.84-.28-1.23-.44l.06,0h0c.1.09.13.14,0,.08h-.06a.65.65,0,0,1-.13.23c-.7-.2-.1-.18.13-.23a.18.18,0,0,0,0-.09h0l-2.49.11A10.64,10.64,0,0,0,300.07,69.5Z" transform="translate(0 -11.7)"/><path class="cls-2" d="M312,74.14a.18.18,0,0,1-.06-.16C311.72,74,311.66,74.08,312,74.14Z" transform="translate(0 -11.7)"/><path class="cls-2" d="M311,73.63a1.09,1.09,0,0,1,.94-.17c.47.25,0,.3,0,.52.37-.13,1.27-.32.22-.76l-.19.07C311,73,309.8,72,310,71.94A4.43,4.43,0,0,0,311,73.63Z" transform="translate(0 -11.7)"/><path class="cls-2" d="M305.45,71.72l-2.07.08,1,.67,0-.34C305.48,72.4,305.28,72,305.45,71.72Z" transform="translate(0 -11.7)"/><polygon class="cls-2" points="294.55 56.83 294.89 56.17 293.61 57.02 294.55 56.83"/><polygon class="cls-2" points="291.89 56.65 292.05 56.07 291.31 56.35 291.89 56.65"/><path class="cls-2" d="M142.05,69.9l-.6.18A3.18,3.18,0,0,0,142.05,69.9Z" transform="translate(0 -11.7)"/><path class="cls-2" d="M146.38,69.84l.1-.3C146.28,69.71,146.2,69.83,146.38,69.84Z" transform="translate(0 -11.7)"/><path class="cls-2" d="M226.69,63.68c-.85-.6-1.79-1.5-1.71-.83l.24.67A2.69,2.69,0,0,1,226.69,63.68Z" transform="translate(0 -11.7)"/><path class="cls-2" d="M181.91,66.29l.25.2.6-.61Z" transform="translate(0 -11.7)"/><path class="cls-2" d="M181.26,69l-1.14-.43A4.64,4.64,0,0,0,181.26,69Z" transform="translate(0 -11.7)"/><path class="cls-2" d="M118.43,71.3l-.67.7C118.85,72,118.35,71.63,118.43,71.3Z" transform="translate(0 -11.7)"/><path class="cls-2" d="M264.72,66.19a7.3,7.3,0,0,0-1.86-.55C263.74,66.09,264.43,66.71,264.72,66.19Z" transform="translate(0 -11.7)"/><path class="cls-2" d="M143.62,63c-.37.12-.52.26-.51.4C143.49,63.24,143.7,63.11,143.62,63Z" transform="translate(0 -11.7)"/><path class="cls-2" d="M260.69,65.47c.12.08.25.12.38.19a6.64,6.64,0,0,1,1.79,0A2.31,2.31,0,0,0,260.69,65.47Z" transform="translate(0 -11.7)"/><path class="cls-2" d="M32.88,77.13a1.46,1.46,0,0,1-.2,0C32.67,77.17,32.76,77.16,32.88,77.13Z" transform="translate(0 -11.7)"/><path class="cls-2" d="M7.22,73.63a8.19,8.19,0,0,1,1-.18A2.74,2.74,0,0,0,7.22,73.63Z" transform="translate(0 -11.7)"/><path class="cls-2" d="M281.26,67c.56,0,.09-.06,0,0Z" transform="translate(0 -11.7)"/><path class="cls-2" d="M283.75,69.85a.44.44,0,0,0-.25.3A.55.55,0,0,1,283.75,69.85Z" transform="translate(0 -11.7)"/><path class="cls-2" d="M254.8,69.11h-.05C254.91,69.24,254.88,69.22,254.8,69.11Z" transform="translate(0 -11.7)"/><path class="cls-2" d="M282.08,67.4a4.2,4.2,0,0,0-.71-.26A5.37,5.37,0,0,0,282.08,67.4Z" transform="translate(0 -11.7)"/><path class="cls-2" d="M282,67.08l.48.12C282.56,67.09,282.5,67,282,67.08Z" transform="translate(0 -11.7)"/><path class="cls-2" d="M280.47,67a4.23,4.23,0,0,1,.9.16c-.1-.06-.15-.1-.11-.12Z" transform="translate(0 -11.7)"/><path class="cls-2" d="M78.52,71.23l-.12,0C77.85,71.49,78.1,71.43,78.52,71.23Z" transform="translate(0 -11.7)"/><path class="cls-2" d="M211.78,69.81s0,0,.07,0l-.08,0Z" transform="translate(0 -11.7)"/><path class="cls-2" d="M209.75,70.24a1.75,1.75,0,0,1,2-.48l-.61-1.89Z" transform="translate(0 -11.7)"/><path class="cls-2" d="M131.68,70.33l1.43.55c-1.68,1-2.92.7-1.57,1.49.14-2,5.49-.34,5.63-2.38l1,.41c-.27,0-.31.11-.58.09,1.84.94,1.32-1.5,3.66-1.26.82.13,1.4.42.85.67l1.8-.55c.53,0,.41.39-.12.36l2.77-.23,0,.06a12.74,12.74,0,0,1,1.71-1.06c.71.28-.35.23-.17.48l1.53-.53c.63.51-.63,1-1.69,1,1.46,2,1.26-.56,4.37.62l-1.44.26c1,1.15,2.07.73,3.71,1.44-.39-.38-3.29-1.8-1.64-2.31a2.56,2.56,0,0,0,2-.2c0,.72.89.54,2,.49l-.06,1c1.18-.28,1.08-.77,1.78-1.2a2,2,0,0,1,1.91,1.45c2.12.14-1.46-1.19,1-1.38,1.76.35,3,0,5.1-.63,1.24.32-.21.59.23.86l1.09-.77c.27,0,.18.25.14.37.92-.3.07-1,1.52-1.23.4-1.07,3,1.53,4.77.37.44.27-.22.58-.08,1a15.74,15.74,0,0,0,4.13-1.58l1.72.65c-1.26-.74.36-1.57,1.79-2.26a12.74,12.74,0,0,0-1.09-.81l2.27-.49c.27.16,0,.49-.33.89l.41-.23c.81.36.38.91-.2,1.44-.27-.19-.55-.39-.81-.6-.56.58-1.09,1.22-1,1.78a1.87,1.87,0,0,1,.74-.25c-.15.16-.24.3-.18.39s.32-.1.69-.34l.5,1.07.13-.42,2.94.7c2.13-1,4-2.63,7.36-3-.84.76-.2,1.28-.26,2.21-.9-1-2.61.39-4.34.16.9.12.7.56.46.71l3.12-.86c-.09.76.65.57,1.45.92-.58-1.52,2.33-.94,3.6-1.37.07.51-.25,1-1.78.85,1.67,1.18,2.23-1.7,3.88-.69-.38,0-.58-.08-.74.17.89-.43,3,0,2.51.42h-.37c2.49.24,7.59.22,8-1a7.9,7.9,0,0,1-.53,1.79l4.6-4.17c-.44,1.08,1,3.73-1.11,4.29a4.08,4.08,0,0,0,2.58,0c-.4-.17-1-1.61-.4-1.7,1.48,1.28,1,.7,2.87,1.82-.6-.26.14-2,1.1-1.85-.16.25,0,1.7-.35,1.86l2.46-1.58c-.61.28-.17,1.43.35,1.93-.24-.35,2.06.12,2.7,0l-1-.43c2.68.37,2.76-2.25,5.44-2-.34.33-.9,2.1.45,2.37.66-.83,3-4,5.37-4.58l.43.52,1.85-.48a38.56,38.56,0,0,1-6.3,4.82c1,.43.25.59,1.76.61.51.49-.86.67-1.3.68l3.49.45c-.1-1,2.74-.89,2.65-1.73l-3.87.87c-.1-1,2.36-2.78,4.84-2.45.61.44-.57,1.76-.54,2.1a4.11,4.11,0,0,1,2.62-.25L238,71.2c1.36.46,2.34-1.19,3.95-.13.57.1,1.63,1.4,1.77.81-.87-1.2-.84-4.77-.16-5.59a21,21,0,0,1,3.58,1.9c.89,1-1.56,2-.8,2.88.05-.28.6-.58.82-.68.59.27-.3.84,1,.8.28-1,2.66.25.67-.83,1.3-.21,1.35.3,2.86.35-.43-.69,1.51-2.16,2.82-2.37-.1.25.17.61.3.77,2.63.24,4,.83,6.45,1,.21.26,1.37.66.84,1.06a2.56,2.56,0,0,1,1.47-.44c1.4,1-1.7,0-.66,1.15.14-.58,2-.66,3.12-.94-.26-1-2.47-.38-3.58-.1.09-1.26,2.07-2.43,4.68-2.81,2.07-.15.82.89,1.19.74,3.82.53,3.45-1.94,6.56-.78,1.2.91-.08,1.61.15,2.21-1.69.17-2.51-.72-3.63-.78l1.35.5a3.5,3.5,0,0,1-2.26.05c1,.82,6.46.64,9.35,1.58.55-.22,1.48-.41,1.08-.77l-1,0c-.8-.73,1.84-.72.69-1.14,1.29-.33,2.76-.91,4.49-.37l.25,1c0-.28-1.1-.66-1.62-.43.77-.34,2.58,1.5,3.5.38l-1.17-.75c1.3-.34,2.95-1.16,4.49-.72-.62-1-.37.07-1.38-1.1.84,1.41-4-.44-2.59,1.09-1-1.34-1.92-.71-3.32-1.91,0,.31.48.63-.83.36a1,1,0,0,1-.31.23l-.08,0,.06,0c-.06,0-.06,0,0,0a1.57,1.57,0,0,1,.63.52c-.72.63-2.81.41-3.54.7-.77-.22.35-.32,0-.68l-1.11.45c0-.68-2-1.28-.1-1.53l-1.65-.16a5.29,5.29,0,0,0-3.13-.5c-.77-.21-2,.59-1.31.12l-2.63.2,0-.17c-2.55-.29-5.36.69-8.2-.75a8.78,8.78,0,0,1-3.21-.07l-.24-.6c-1.12.13-3.29-.79-3.81-.22-1.09-1.64-5.37-.68-7.3-1.08l-.12.76a20,20,0,0,0-4.33.21l.06.67c-1.47.47-3.67-.7-5.94-.78.16-.25.74-.14,1.14,0-2.64-1.68-5.79.83-8.2-.39a1.87,1.87,0,0,1-1.49-.08.33.33,0,0,0,.15,0l-.25,0c-.27-.12-.54-.27-.84-.39a3,3,0,0,0,.71.39,9.54,9.54,0,0,0-1.91.18l-.27-.73h-.16c-.68-.3-.58.32-.23.87a4.18,4.18,0,0,0-1,.4c-.51-1.19-1.87.31-2.58-1-.5.58-3.56.3-4,1.55,0-.16-.22-.25.16-.25a3.5,3.5,0,0,0-2.28,0l-.3-.93-1.76,1.18c-1-.59-1.44-.93-.38-1.6-2.53,1-2,.35-4.2,1.37l.12-.59c-.76,0-2,.76-2.43.25-1.67-1.17-8.4-.39-12.74-1.56.82,1.76-2-.82-2.21.54-.24-.41-.85-.66-.13-1-2.24.39-3.34-.69-4.89.44-.25-.42.48-.6.26-.85-.18.09-.72.35-.94.1s.33-.34.68-.52c-2.28,0-2.52,1.32-2.7,2.51a1.86,1.86,0,0,0-2.56.27c-.4-.39-1.06-.81.35-.94-.79-.06-4.85-.62-4.94.33-.24-.24-1.11-.08-1.32,0a30.3,30.3,0,0,0-3.68-.09l.48.16c-.69,1.14-1.46.26-2.87.4l0-.12c-3.23-.81-1.39.41-4.58-.52l.17.72c-.29,1.55-2.83-.9-4.68-.29l.67.4c-1,.54-2.84-2.08-3.86-2.27-.22-.13.35-.22.66-.32-2.68-.9-.34.94-2.32,1.18-.37-.51.46-1.3-.88-1.39-.67-.4-3.86,1.66-5.69.73.41.38.81.77-.1,1.08-1.41.17-3.85-1.39-5.1-.13-.18-.1-.25-.2-.26-.3-1.07.35-3.5.61-4.13,1.3-1.06-2.46-6.67,1.36-6.71-.93l-3.32.2.08-.24a4.44,4.44,0,0,0-3.58,1.08c-.5-.14-.15-.37-.11-.49-3.11-.33-3.42-.22-6,1l-.3-.73c-.69.46-4.53-1-7.53,0a.51.51,0,0,1,.32-.34c-1.69.5-3.76.07-5.56-.14s-3.29-.16-3.85,1.23l-2.22.8c2.93,0-.37,1.19.85,1.57-1.13.23-3-.64-1.6-.86l.23.12c.44-1.44-3.65-.29-3.63-1.25-5.73.41-11.38-.1-16.75.28L80,67l-1.87.08c-.51-.22-.72-.81.62-.86-.75-.57-2.21.69-2.23.93-2.65-.25.93-1.36.13-1.32L75.58,66l.26.11c-.85.51-.9,1-2.51,1.06-1-.14-.57-.63-1-.65,0-.07-.14-.1-.62,0l-2.37.08,1,.79c-1,.51-2.22.13-1,1-.86-.69-3.07-.66-5.2-.51s-4.15.5-4.66.31a10.33,10.33,0,0,1-4.64,1c.46.14.81,1.09-.74,1.11.38-2-2.9-.6-4.29-1.93,1.21.85-4.36.64-2.48,1.84-1.3,0-.15-.74-1.18-1.12-3,1-6.8.16-10.55.85,0,.27.64.6-.13,1.08L33.33,70c-.74.21-.52,1.59-2,.83.22.2.54.5.05.64a54.15,54.15,0,0,0-11.31,1,33.52,33.52,0,0,1-11.49.37c1.09.38.42.52-.36.64.52,0,.08.64.22,1l-3.27-.57c-.44,1-3.36.5-3.56,1.48l1-.3c-1.17,1.28,2.19,2.23,2.18,3.68,1.31-1.45,4.14,1.37,6.33-.75.57.22-.4.51-.07.81.53-.69,1.26-.92,2.67-.82l-.14.17c3.84-.63,5.56-.29,10-.38l-.41-.67a3.85,3.85,0,0,1,1.63.32c.94-1.19-2.63.23-1.79-1.06,1.4,1.3,6.58-.71,7.6.83,1.44-.15-.51-.77.93-.92l.43.4.3-.61c.95,0,1.48.49,1.56.86a4.24,4.24,0,0,0-.88.23c1.28.39,3.42-.55,3.86-.43l-1.41-.12c3.87-.86,8.71-.81,12.42-2l-.33-.3c2.84-.89,2.36.15,5.51-.43l-.11.09a4.8,4.8,0,0,1,2.32-.68c-.77.46,1.58.62.56,1.15,3.08-1,1.51-.67,3.47-2.1l.53.51A3.27,3.27,0,0,1,62,71.66c-1.26.6,1.08.75-.32,1.51,3.43.89,4.85-1.61,6.53,0,1.41-1.65-3-.64-2.13-1-.76-.45,1.17-1.24,2.23-1.17s2,1.83,4.65,1.6c-.27,0-.27.13-.54.14,1,.32,1.92-.67,3.2-.13.62-1,1.6-.07,1.72-1.27l-2.44.46c1.37-.41,2.58-1.9,4.93-1.4a3.94,3.94,0,0,1-1.29.83c.7.3,1.28-.33,2,0-.11,1.2-3,.48-4.4,1.5.76.44,2.77-1.07,2.11.27,1-1.72,2.65,0,4.38-1.38l-.07.72a3.79,3.79,0,0,1,1.38-.53l-.89,1c1.41-.9,2.88.47,4.26,0-3,.2-.72-.81-2-1.26,3.58-1.16,2.21,1.74,6.27,1.16-.55.13-2.1-.31-1.26-.68a6.15,6.15,0,0,1,2.33.66c2.69-.31-.46-.71.66-1.21,1,.81,1.31-.43,2.48-.78l0,.72c3.1.29.73-1.55,3.54-1.15l-1.12,1.07,1.43-.34-.25.84a5.37,5.37,0,0,1,3.59-.43c-.39-.49.13-1.32,1.5-1.42.95.37-.49.71,1.44.5-.42.48-.87,1.07-1.74.45-.07.24-.41.48-.48.72,1,.44,2.52,0,3.22-.08a1.94,1.94,0,0,1-.77-.13l2.76-1.12c.45.25.11.49-.22.71a12.8,12.8,0,0,1,1.77-.54c-.19.6-.11,1.2-1.28,1.52l2.65-.76c.19.25,1.4.65,1.06.88,1.49.29,3.58-1.29,5.57-.91a1.23,1.23,0,0,1,.71-.33c1.85,0,3.51.71,5.67-.18l1.28,1c1.7-.31-1.73-1.26,1.11-1.77,2-.42.79.87,1.5,1.14,1-.56,2.71-1.68,4.59-.86A8.13,8.13,0,0,1,131.68,70.33Zm21.14-.91c-.4.16-1.22.63-1.52.21C151.75,68.79,152.12,69.19,152.82,69.42ZM185,67.72c-.31.23-.78.11-1.31-.17A2.49,2.49,0,0,1,185,67.72Zm90-.64-.05,0C274.1,66.76,274.42,66.89,275,67.08Zm1.88.46c.2-.08.19-.18.12-.29-.15.17-.58.15-1.06.06C276.1,67.51,276.33,67.66,276.92,67.54ZM72.17,66.82l.38.17C71.73,67.26,72,67.05,72.17,66.82Z" transform="translate(0 -11.7)"/><path class="cls-2" d="M181.35,68.67a.67.67,0,0,1-.17-.4C181,68.39,181,68.53,181.35,68.67Z" transform="translate(0 -11.7)"/><path class="cls-2" d="M118.55,71.18h-.06a.3.3,0,0,0-.06.13Z" transform="translate(0 -11.7)"/><path class="cls-2" d="M247,71.49a1.81,1.81,0,0,1-.73-.42C246.28,71.24,246.45,71.4,247,71.49Z" transform="translate(0 -11.7)"/><path class="cls-2" d="M287.11,67.27l-1.24.07a2,2,0,0,1,1.07.34C286.93,67.51,286.72,67.24,287.11,67.27Z" transform="translate(0 -11.7)"/><path class="cls-2" d="M297.21,72.76c.19-.07.38,0,.57-.05l0-.34C297,72.32,296.45,72.54,297.21,72.76Z" transform="translate(0 -11.7)"/><path class="cls-2" d="M288,69.77c0,.62.82.49,1.68.46a.39.39,0,0,1-.15,0C289.87,69.39,288.93,69.58,288,69.77Z" transform="translate(0 -11.7)"/><path class="cls-2" d="M289.88,70.23a3.42,3.42,0,0,1,.79.06C290.81,70,290.36,70.19,289.88,70.23Z" transform="translate(0 -11.7)"/><path class="cls-2" d="M279.36,67.34c.4.2.33-.75.53-.48C280.42,66.12,277.11,67.55,279.36,67.34Z" transform="translate(0 -11.7)"/><polygon class="cls-2" points="288.5 60.13 288.26 59.36 287.73 59.91 288.5 60.13"/><path class="cls-2" d="M281.83,70.63l1.34.34c0-.13.17-.18.39-.22C282.73,70.64,281.82,70.4,281.83,70.63Z" transform="translate(0 -11.7)"/><path class="cls-2" d="M283.56,70.75a2.51,2.51,0,0,0,1.11,0A6,6,0,0,0,283.56,70.75Z" transform="translate(0 -11.7)"/><polygon class="cls-2" points="286.62 60.18 286.23 59.98 285.28 59.83 286.62 60.18"/><path class="cls-2" d="M267.21,69.26l-1.5.09c-.17.25.22.44.78.38C266.86,69.58,267.42,69.53,267.21,69.26Z" transform="translate(0 -11.7)"/><path class="cls-2" d="M271.54,71.67c-.39-.19-.4-.36-.61-.62l-.12.92Z" transform="translate(0 -11.7)"/><path class="cls-2" d="M267.19,71.54c-.16.25-2.21.57-.32.66C267,72,268.54,71.86,267.19,71.54Z" transform="translate(0 -11.7)"/><polygon class="cls-2" points="244.9 57.09 245.28 57.1 245.32 55.57 244.9 57.09"/><path class="cls-2" d="M225,71.4c1.74.44.46-.93,2-.4.43-.34-1.28-.43-.84-.72C225.09,70.61,224.54,70.37,225,71.4Z" transform="translate(0 -11.7)"/><path class="cls-2" d="M226.17,70.28a3.82,3.82,0,0,0,.55-.21A1.8,1.8,0,0,0,226.17,70.28Z" transform="translate(0 -11.7)"/><polygon class="cls-2" points="2.97 61.65 1.8 61.48 2.6 61.89 2.97 61.65"/><path class="cls-2" d="M1,74.75l-.4-.93-.56,1C.25,74.71.73,74.56,1,74.75Z" transform="translate(0 -11.7)"/><path class="cls-2" d="M156,71.36l.08-.23c-.18-.25-.44-.27-1-.31Z" transform="translate(0 -11.7)"/><polygon class="cls-2" points="140.64 59.18 140.91 59.2 140.39 58.33 140.64 59.18"/><path class="cls-2" d="M127.8,72.31c.53,0,1.14-.19,1.67-.17C128.33,72.32,127.63,71.22,127.8,72.31Z" transform="translate(0 -11.7)"/></g></g></svg>