<svg width="510" height="175" viewBox="0 0 510 175" fill="none" xmlns="http://www.w3.org/2000/svg">
<path d="M122.557 39L74 97.2682H117.701L112.845 136.114L161.402 77.8455H117.701L122.557 39Z" fill="white"/>
<path d="M230.147 79.6159V97.5901H204.221V122.21H183.85V49.2229H235.594V67.1972H204.221V79.6159H230.147Z" fill="white"/>
<path d="M264.005 49.2229V122.21H245.267V49.2229H264.005Z" fill="white"/>
<path d="M294.921 65.0186C297.825 65.0186 300.658 65.6721 303.417 66.9793C306.25 68.2139 308.573 69.8117 310.389 71.7725V66.6525H329.127V122.21H310.389V112.95C309.01 116 306.904 118.578 304.072 120.684C301.239 122.791 297.825 123.844 293.832 123.844C289.692 123.844 285.806 122.791 282.175 120.684C278.544 118.578 275.566 115.347 273.243 110.989C270.991 106.56 269.865 101.004 269.865 94.3222C269.865 88.0765 270.991 82.7751 273.243 78.4176C275.566 74.0602 278.617 70.7558 282.393 68.5044C286.242 66.1805 290.418 65.0186 294.921 65.0186ZM298.843 83.3197C296.156 83.3197 293.904 84.4091 292.088 86.5878C290.345 88.7665 289.474 91.3446 289.474 94.3222C289.474 97.2997 290.381 99.8052 292.197 101.839C294.013 103.873 296.41 104.889 299.387 104.889C300.984 104.889 302.619 104.49 304.289 103.691C305.959 102.819 307.376 101.549 308.537 99.8778C309.772 98.1346 310.389 95.9199 310.389 93.2329V87.895C308.792 86.5877 306.976 85.4984 304.943 84.6269C302.982 83.7554 300.948 83.3197 298.843 83.3197Z" fill="white"/>
<path d="M358.19 65.0186C361.822 65.0186 365.162 65.5632 368.212 66.6525C371.335 67.6693 373.84 69.0855 375.729 70.9011V85.6074C373.84 84.4454 371.698 83.356 369.302 82.3393C366.905 81.25 364.327 80.7052 361.567 80.7052C359.824 80.7052 358.263 81.0684 356.883 81.7946C355.576 82.4482 354.922 83.5012 354.922 84.9537C354.922 85.9705 355.321 86.733 356.12 87.2414C356.92 87.7497 358.48 88.2944 360.804 88.8754L364.181 89.7469C373.84 92.2161 378.67 97.4086 378.67 105.324C378.67 108.956 377.581 112.188 375.402 115.02C373.296 117.78 370.5 119.958 367.014 121.556C363.6 123.081 359.897 123.844 355.902 123.844C351.763 123.844 347.914 123.262 344.356 122.101C340.796 120.866 337.746 119.378 335.205 117.634V103.037C337.819 104.635 340.76 105.978 344.029 107.068C347.369 108.157 350.347 108.702 352.961 108.702C355.067 108.702 356.593 108.447 357.537 107.939C358.553 107.431 359.061 106.523 359.061 105.216C359.061 104.199 358.48 103.436 357.319 102.928C356.156 102.347 354.487 101.694 352.308 100.968L346.752 99.2245C342.685 97.9894 339.707 96.0656 337.819 93.4507C335.931 90.7636 334.987 87.4956 334.987 83.6465C334.987 79.7975 336.003 76.4931 338.037 73.7334C340.07 70.9737 342.83 68.8313 346.316 67.3062C349.875 65.7811 353.832 65.0186 358.19 65.0186Z" fill="white"/>
<path d="M417.321 65.0186C422.985 65.0186 427.597 66.943 431.155 70.7921C434.786 74.6412 436.602 80.3421 436.602 87.895V122.21H417.865L417.756 90.8362C417.756 88.0765 416.993 86.152 415.469 85.0626C413.943 83.9007 412.237 83.3197 410.349 83.3197C408.315 83.3197 406.608 83.8644 405.229 84.9537C403.848 85.9705 402.651 87.2051 401.633 88.6576V122.21H382.897V49.2228H401.633V73.8423C403.377 71.4457 405.483 69.376 407.952 67.633C410.494 65.89 413.616 65.0186 417.321 65.0186Z" fill="white"/>
</svg>
