<svg width="510" height="175" viewBox="0 0 510 175" fill="none" xmlns="http://www.w3.org/2000/svg">
<path d="M220.289 65.0905V127.275H205.142V101.675H181.579V127.275H166.431V65.0905H181.579V89.4504H205.142V65.0905H220.289Z" fill="white"/>
<path d="M235.298 72.7085C232.641 72.7085 230.456 71.9409 228.744 70.4054C227.09 68.811 226.263 66.8622 226.263 64.559C226.263 62.1969 227.09 60.2481 228.744 58.7127C230.456 57.1182 232.641 56.321 235.298 56.321C237.897 56.321 240.023 57.1182 241.676 58.7127C243.389 60.2481 244.245 62.1969 244.245 64.559C244.245 66.8622 243.389 68.811 241.676 70.4054C240.023 71.9409 237.897 72.7085 235.298 72.7085ZM242.828 77.8463V127.275H227.681V77.8463H242.828Z" fill="white"/>
<path d="M277.811 114.43V127.275H270.104C264.612 127.275 260.331 125.946 257.261 123.289C254.189 120.572 252.654 116.173 252.654 110.09V90.4248H246.631V77.8463H252.654V65.7992H267.802V77.8463H277.722V90.4248H267.802V110.267C267.802 111.744 268.156 112.807 268.864 113.456C269.573 114.105 270.754 114.43 272.408 114.43H277.811Z" fill="white"/>
<path d="M329.299 101.764C329.299 103.181 329.21 104.657 329.033 106.193H294.752C294.988 109.263 295.963 111.625 297.675 113.279C299.447 114.873 301.602 115.671 304.141 115.671C307.922 115.671 310.549 114.076 312.026 110.888H328.147C327.32 114.135 325.814 117.058 323.629 119.656C321.504 122.256 318.817 124.293 315.569 125.769C312.321 127.245 308.689 127.983 304.674 127.983C299.831 127.983 295.519 126.95 291.74 124.883C287.961 122.816 285.009 119.863 282.882 116.025C280.756 112.186 279.693 107.699 279.693 102.56C279.693 97.4231 280.727 92.9346 282.793 89.0961C284.92 85.2575 287.872 82.3048 291.652 80.2379C295.431 78.171 299.772 77.1376 304.674 77.1376C309.457 77.1376 313.709 78.1416 317.429 80.1494C321.15 82.1573 324.043 85.0213 326.11 88.7418C328.236 92.4622 329.299 96.8023 329.299 101.764ZM313.797 97.7771C313.797 95.1787 312.911 93.1118 311.14 91.5764C309.368 90.041 307.153 89.2732 304.497 89.2732C301.956 89.2732 299.802 90.0115 298.029 91.4878C296.317 92.9641 295.254 95.0606 294.84 97.7771H313.797Z" fill="white"/>
<path d="M330.735 102.56C330.735 97.4231 331.768 92.9346 333.836 89.0961C335.961 85.2575 338.884 82.3048 342.605 80.2379C346.385 78.171 350.695 77.1376 355.538 77.1376C361.738 77.1376 366.906 78.7616 371.039 82.0096C375.233 85.2575 377.978 89.8342 379.278 95.7397H363.156C361.798 91.9602 359.17 90.0705 355.272 90.0705C352.497 90.0705 350.282 91.163 348.629 93.348C346.975 95.4739 346.148 98.5446 346.148 102.56C346.148 106.576 346.975 109.676 348.629 111.861C350.282 113.988 352.497 115.05 355.272 115.05C359.17 115.05 361.798 113.161 363.156 109.382H379.278C377.978 115.169 375.233 119.716 371.039 123.023C366.846 126.33 361.68 127.983 355.538 127.983C350.695 127.983 346.385 126.95 342.605 124.883C338.884 122.816 335.961 119.863 333.836 116.025C331.768 112.186 330.735 107.699 330.735 102.56Z" fill="white"/>
<path d="M414.22 77.3147C419.889 77.3147 424.436 79.2045 427.861 82.984C431.287 86.7043 433 91.842 433 98.3967V127.275H417.941V100.435C417.941 97.1272 417.084 94.5586 415.372 92.7279C413.659 90.8972 411.356 89.9819 408.462 89.9819C405.569 89.9819 403.265 90.8972 401.553 92.7279C399.84 94.5586 398.984 97.1272 398.984 100.435V127.275H383.837V61.7244H398.984V84.4899C400.519 82.3048 402.615 80.5627 405.273 79.2635C407.931 77.9644 410.913 77.3147 414.22 77.3147Z" fill="white"/>
<path d="M88 94.7701V41H105.927V68.6404C109.056 67.4327 112.456 66.7704 116.011 66.7704C131.481 66.7704 144.022 79.3115 144.022 94.7817V127.275H126.095V94.7817C126.095 89.2125 121.58 84.6976 116.011 84.6976C110.444 84.6976 105.931 89.2084 105.927 94.7743C105.927 94.7767 105.927 94.7792 105.927 94.7817V127.275H88V94.7817C88 94.7778 88 94.7739 88 94.7701Z" fill="white"/>
<path d="M126.095 58.9272V41H144.022V58.9272H126.095Z" fill="white"/>
</svg>
