<svg width="510" height="175" viewBox="0 0 510 175" fill="none" xmlns="http://www.w3.org/2000/svg">
<path fill-rule="evenodd" clip-rule="evenodd" d="M158.54 84.2759C160.432 93.3 159.556 101.693 156.499 108.692L156.661 108.689C154.041 115.862 145.323 130.869 124.799 135.172C124.018 135.336 123.239 135.466 122.461 135.563C120.503 135.851 118.471 136 116.375 136C92.0683 136 68.1696 115.992 62.9954 91.31C60.5308 79.5538 62.7591 68.8576 68.3957 60.879C71.0138 55.8393 84.7494 43.6168 95.8339 41.2418C96.134 41.1775 96.4225 41.1271 96.6999 41.0901C99.6295 40.3766 102.754 40 106.044 40C129.91 40 153.414 59.823 158.54 84.2759ZM150.185 82.2069C154.209 101.404 142.276 116.965 123.531 116.965C104.787 116.965 86.3287 101.404 82.3044 82.2069C78.28 63.0102 90.2131 47.4482 108.958 47.4482C127.702 47.4482 146.16 63.0102 150.185 82.2069ZM122.388 106.207C136.262 106.207 145.152 94.963 142.244 81.0922C139.337 67.2218 125.732 55.9775 111.858 55.9775C97.9836 55.9775 89.0936 67.2218 92.0014 81.0922C94.9092 94.963 108.514 106.207 122.388 106.207ZM134.747 80.0514C136.571 88.7526 130.843 95.806 121.952 95.806C113.062 95.806 104.376 88.7526 102.552 80.0514C100.728 71.3501 106.456 64.2964 115.347 64.2964C124.237 64.2964 132.923 71.3501 134.747 80.0514ZM126.595 80.0516C127.495 84.346 124.668 87.8273 120.28 87.8273C115.892 87.8273 111.606 84.346 110.705 80.0516C109.805 75.7572 112.632 72.2759 117.02 72.2759C121.408 72.2759 125.695 75.7572 126.595 80.0516Z" fill="white"/>
<path d="M222.853 110C222.853 110.552 223.301 111 223.853 111H231.455C232.007 111 232.455 110.552 232.455 110V73.4906H223.853C223.301 73.4906 222.853 73.9383 222.853 74.4906V110Z" fill="white"/>
<path d="M223.163 67.5499C224.084 68.517 225.488 69.0005 227.376 69.0005C229.264 69.0005 230.646 68.517 231.521 67.5499C232.396 66.5368 232.833 65.2934 232.833 63.8197C232.833 62.254 232.396 60.9875 231.521 60.0205C230.646 59.0534 229.264 58.5698 227.376 58.5698C225.488 58.5698 224.084 59.0534 223.163 60.0205C222.288 60.9875 221.85 62.254 221.85 63.8197C221.85 65.2934 222.288 66.5368 223.163 67.5499Z" fill="white"/>
<path fill-rule="evenodd" clip-rule="evenodd" d="M207.718 93.454C204.77 94.836 201.178 95.526 196.942 95.526H189.343V110C189.343 110.552 188.895 111 188.343 111H180.534C179.982 111 179.534 110.552 179.534 110V61.2277C179.534 60.6754 179.982 60.2277 180.534 60.2277H188.343C188.451 60.2277 188.555 60.2448 188.652 60.2764C188.75 60.2448 188.854 60.2277 188.962 60.2277H196.942C201.178 60.2277 204.77 60.9185 207.718 62.3C210.711 63.6816 212.991 65.6618 214.556 68.2407C216.122 70.7735 216.905 73.7899 216.905 77.2898V78.3951C216.905 81.895 216.122 84.9344 214.556 87.5133C212.991 90.046 210.711 92.026 207.718 93.454ZM202.744 69.8985C201.409 69.1157 199.751 68.7242 197.771 68.7242H189.343V87.0298H197.771C199.751 87.0298 201.409 86.6383 202.744 85.8554C204.126 85.0726 205.162 83.9903 205.853 82.6088C206.59 81.2272 206.958 79.6385 206.958 77.8424C206.958 76.0464 206.59 74.4576 205.853 73.0761C205.162 71.6945 204.126 70.6354 202.744 69.8985Z" fill="white"/>
<path d="M241.067 111C240.515 111 240.067 110.552 240.067 110V74.4906C240.067 73.9383 240.515 73.4906 241.067 73.4906H246.666C247.218 73.4906 247.666 73.9383 247.666 74.4906V82.7338C247.888 81.7718 248.164 80.8781 248.495 80.0529C249.508 77.474 251.004 75.5399 252.985 74.2504C255.011 72.961 257.521 72.3162 260.514 72.3162H260.928C265.396 72.3162 268.78 73.7669 271.083 76.6681C273.385 79.5233 274.537 83.8061 274.537 89.5165V110C274.537 110.552 274.089 111 273.537 111H265.935C265.383 111 264.935 110.552 264.935 110V88.6876C264.935 86.385 264.267 84.5199 262.932 83.0923C261.642 81.6647 259.846 80.9509 257.544 80.9509C255.195 80.9509 253.284 81.6878 251.81 83.1614C250.383 84.589 249.669 86.5232 249.669 88.9639V110C249.669 110.552 249.221 111 248.669 111H241.067Z" fill="white"/>
<path fill-rule="evenodd" clip-rule="evenodd" d="M310.349 93.454C307.402 94.836 303.81 95.526 299.573 95.526H291.975V110C291.975 110.552 291.527 111 290.975 111H283.165C282.613 111 282.165 110.552 282.165 110V61.2277C282.165 60.6754 282.613 60.2277 283.165 60.2277H290.975C291.082 60.2277 291.186 60.2448 291.284 60.2764C291.381 60.2448 291.485 60.2277 291.593 60.2277H299.573C303.81 60.2277 307.402 60.9185 310.349 62.3C313.342 63.6816 315.622 65.6618 317.188 68.2407C318.754 70.7735 319.536 73.7899 319.536 77.2898V78.3951C319.536 81.895 318.754 84.9344 317.188 87.5133C315.622 90.046 313.342 92.026 310.349 93.454ZM305.376 69.8985C304.04 69.1157 302.382 68.7242 300.402 68.7242H291.975V87.0298H300.402C302.382 87.0298 304.04 86.6383 305.376 85.8554C306.757 85.0726 307.793 83.9903 308.484 82.6088C309.221 81.2272 309.589 79.6385 309.589 77.8424C309.589 76.0464 309.221 74.4576 308.484 73.0761C307.793 71.6945 306.757 70.6354 305.376 69.8985Z" fill="white"/>
<path fill-rule="evenodd" clip-rule="evenodd" d="M340.908 112.312C337.593 112.312 334.668 111.783 332.135 110.723C329.603 109.664 327.461 108.237 325.711 106.441C323.961 104.598 322.626 102.526 321.705 100.224C320.83 97.921 320.392 95.526 320.392 93.039V91.589C320.392 89.01 320.853 86.5692 321.774 84.2666C322.741 81.918 324.099 79.8457 325.849 78.0497C327.645 76.2076 329.81 74.78 332.343 73.7669C334.876 72.7077 337.731 72.1781 340.908 72.1781C344.086 72.1781 346.941 72.7077 349.474 73.7669C352.007 74.78 354.148 76.2076 355.898 78.0497C357.694 79.8457 359.053 81.918 359.974 84.2666C360.895 86.5692 361.355 89.01 361.355 91.589V93.039C361.355 95.526 360.895 97.921 359.974 100.224C359.099 102.526 357.786 104.598 356.036 106.441C354.286 108.237 352.145 109.664 349.612 110.723C347.079 111.783 344.178 112.312 340.908 112.312ZM340.908 104.092C343.257 104.092 345.237 103.585 346.849 102.572C348.461 101.513 349.681 100.108 350.51 98.358C351.339 96.562 351.753 94.536 351.753 92.28C351.753 89.9771 351.316 87.9508 350.441 86.2008C349.612 84.4048 348.369 83.0002 346.711 81.9871C345.099 80.9279 343.165 80.3983 340.908 80.3983C338.652 80.3983 336.695 80.9279 335.037 81.9871C333.425 83.0002 332.182 84.4048 331.307 86.2008C330.432 87.9508 329.994 89.9771 329.994 92.28C329.994 94.536 330.409 96.562 331.237 98.358C332.112 100.108 333.356 101.513 334.968 102.572C336.579 103.585 338.56 104.092 340.908 104.092Z" fill="white"/>
<path d="M368.105 110C368.105 110.552 368.553 111 369.105 111H376.707C377.259 111 377.707 110.552 377.707 110V73.4906H369.105C368.553 73.4906 368.105 73.9383 368.105 74.4906V110Z" fill="white"/>
<path d="M368.414 67.5499C369.335 68.517 370.74 69.0005 372.628 69.0005C374.516 69.0005 375.897 68.517 376.772 67.5499C377.647 66.5368 378.085 65.2934 378.085 63.8197C378.085 62.254 377.647 60.9875 376.772 60.0205C375.897 59.0534 374.516 58.5698 372.628 58.5698C370.74 58.5698 369.335 59.0534 368.414 60.0205C367.539 60.9875 367.102 62.254 367.102 63.8197C367.102 65.2934 367.539 66.5368 368.414 67.5499Z" fill="white"/>
<path d="M386.319 111C385.766 111 385.319 110.552 385.319 110V74.4906C385.319 73.9383 385.766 73.4906 386.319 73.4906H391.917C392.469 73.4906 392.917 73.9383 392.917 74.4906V82.7338C393.14 81.7717 393.416 80.8781 393.746 80.0529C394.759 77.474 396.256 75.5399 398.236 74.2504C400.262 72.961 402.772 72.3162 405.766 72.3162H406.18C410.647 72.3162 414.032 73.7669 416.334 76.6681C418.637 79.5233 419.788 83.8061 419.788 89.5165V110C419.788 110.552 419.341 111 418.788 111H411.187C410.634 111 410.187 110.552 410.187 110V88.6876C410.187 86.385 409.519 84.5199 408.183 83.0923C406.894 81.6647 405.098 80.9509 402.795 80.9509C400.447 80.9509 398.535 81.6878 397.062 83.1614C395.634 84.589 394.92 86.5232 394.92 88.9639V110C394.92 110.552 394.473 111 393.92 111H386.319Z" fill="white"/>
<path d="M434.394 110.171C436.65 111.046 439.506 111.483 442.96 111.483H447.348C447.9 111.483 448.348 111.035 448.348 110.483V104.263C448.348 103.711 447.9 103.263 447.348 103.263H442.476C440.634 103.263 439.206 102.779 438.193 101.812C437.226 100.799 436.743 99.372 436.743 97.53L436.776 80.5365H447.348C447.9 80.5365 448.348 80.0887 448.348 79.5365V74.4906C448.348 73.9383 447.9 73.4906 447.348 73.4906H436.79L436.81 63.9237C436.811 63.3706 436.363 62.9217 435.81 62.9217H428.83C428.278 62.9217 427.831 63.3682 427.83 63.9197L427.81 73.4906H422.822C422.27 73.4906 421.822 73.9383 421.822 74.4906V79.5365C421.822 80.0887 422.27 80.5365 422.822 80.5365H427.796L427.762 96.908C427.762 100.546 428.315 103.447 429.42 105.612C430.526 107.73 432.183 109.25 434.394 110.171Z" fill="white"/>
</svg>
