<svg width="510" height="175" viewBox="0 0 510 175" fill="none" xmlns="http://www.w3.org/2000/svg">
<path d="M114.365 138.49H81.0154L114.365 88.0586H147.716L114.365 138.49Z" fill="white"/>
<path d="M102.164 36H136.327L102.164 88.0586H68L102.164 36Z" fill="white"/>
<path d="M215.751 79.8725C215.751 82.965 215.006 85.8648 213.514 88.5705C212.079 91.277 209.787 93.4585 206.639 95.1158C203.546 96.7722 199.625 97.6008 194.876 97.6008H185.183V119.802H173.585V61.9788H194.876C199.349 61.9788 203.159 62.752 206.307 64.2984C209.456 65.8448 211.802 67.971 213.349 70.6772C214.951 73.3832 215.751 76.4484 215.751 79.8725ZM194.378 88.2396C197.581 88.2396 199.956 87.5212 201.503 86.0854C203.049 84.594 203.822 82.5234 203.822 79.8725C203.822 74.2393 200.674 71.4228 194.378 71.4228H185.183V88.2396H194.378Z" fill="white"/>
<path d="M232.27 81.0323C233.761 78.6023 235.694 76.6969 238.068 75.3162C240.499 73.9356 243.26 73.2452 246.353 73.2452V85.4227H243.287C239.643 85.4227 236.882 86.2787 235.004 87.9907C233.181 89.7027 232.27 92.6855 232.27 96.9381V119.802H220.672V73.908H232.27V81.0323Z" fill="white"/>
<path d="M271.23 120.548C266.811 120.548 262.835 119.581 259.301 117.648C255.766 115.66 252.977 112.871 250.934 109.281C248.946 105.691 247.951 101.549 247.951 96.8552C247.951 92.1604 248.973 88.019 251.017 84.4291C253.115 80.839 255.96 78.0777 259.55 76.1447C263.139 74.1565 267.143 73.1624 271.562 73.1624C275.979 73.1624 279.983 74.1565 283.573 76.1447C287.163 78.0777 289.98 80.839 292.024 84.4291C294.122 88.019 295.171 92.1604 295.171 96.8552C295.171 101.549 294.094 105.691 291.941 109.281C289.841 112.871 286.97 115.66 283.325 117.648C279.735 119.581 275.703 120.548 271.23 120.548ZM271.23 110.441C273.328 110.441 275.289 109.944 277.112 108.95C278.989 107.9 280.481 106.354 281.585 104.311C282.69 102.267 283.242 99.7823 283.242 96.8552C283.242 92.4922 282.083 89.1512 279.763 86.8312C277.498 84.4564 274.709 83.2686 271.396 83.2686C268.082 83.2686 265.293 84.4564 263.029 86.8312C260.819 89.1512 259.715 92.4922 259.715 96.8552C259.715 101.218 260.792 104.586 262.946 106.962C265.155 109.281 267.916 110.441 271.23 110.441Z" fill="white"/>
<path d="M311.962 110.607H324.417V119.802H300.365V54.8544H311.962V110.607Z" fill="white"/>
<path d="M333.414 68.4404C331.371 68.4404 329.658 67.8053 328.278 66.5351C326.953 65.2096 326.29 63.5804 326.29 61.6474C326.29 59.7145 326.953 58.1129 328.278 56.8426C329.658 55.5172 331.371 54.8544 333.414 54.8544C335.458 54.8544 337.142 55.5172 338.467 56.8426C339.848 58.1129 340.538 59.7145 340.538 61.6474C340.538 63.5804 339.848 65.2096 338.467 66.5351C337.142 67.8053 335.458 68.4404 333.414 68.4404ZM339.13 73.9079V119.802H327.532V73.9079H339.13Z" fill="white"/>
<path d="M372.708 73.2452C378.175 73.2452 382.593 74.9849 385.962 78.4643C389.331 81.8883 391.015 86.6935 391.015 92.8787V119.802H379.417V94.4531C379.417 90.8075 378.506 88.019 376.684 86.0854C374.861 84.0972 372.376 83.1036 369.228 83.1036C366.025 83.1036 363.484 84.0972 361.606 86.0854C359.784 88.019 358.873 90.8075 358.873 94.4531V119.802H347.275V73.908H358.873V79.624C360.419 77.6358 362.38 76.0894 364.755 74.9849C367.184 73.8251 369.835 73.2452 372.708 73.2452Z" fill="white"/>
<path d="M441.394 95.8606C441.394 97.5179 441.284 99.0093 441.063 100.335H407.512C407.788 103.648 408.948 106.244 410.991 108.122C413.035 110 415.547 110.939 418.53 110.939C422.837 110.939 425.903 109.088 427.725 105.388H440.234C438.909 109.806 436.368 113.451 432.612 116.322C428.857 119.139 424.246 120.548 418.778 120.548C414.36 120.548 410.384 119.581 406.85 117.648C403.37 115.66 400.636 112.871 398.648 109.281C396.715 105.691 395.748 101.549 395.748 96.8552C395.748 92.1057 396.715 87.9361 398.648 84.3462C400.58 80.7563 403.287 77.9948 406.767 76.0619C410.245 74.1289 414.25 73.1624 418.778 73.1624C423.141 73.1624 427.035 74.1013 430.459 75.979C433.938 77.8568 436.617 80.5353 438.495 84.0143C440.428 87.4383 441.394 91.3874 441.394 95.8606ZM429.382 92.5469C429.327 89.5651 428.249 87.1904 426.151 85.4227C424.052 83.6005 421.484 82.6892 418.447 82.6892C415.575 82.6892 413.145 83.5731 411.157 85.3398C409.224 87.0518 408.036 89.4548 407.594 92.5469H429.382Z" fill="white"/>
</svg>
