<svg width="510" height="175" viewBox="0 0 510 175" fill="none" xmlns="http://www.w3.org/2000/svg">
<path d="M284.3 121.373C284.3 122.374 285.136 123.172 286.138 123.124L300.979 122.415C301.915 122.37 302.65 121.599 302.65 120.662V73.7613C302.65 72.7648 301.821 71.9684 300.826 72.0083L285.984 72.602C285.042 72.6396 284.3 73.4134 284.3 74.355V121.373Z" fill="white"/>
<path d="M286.606 63.2318C288.423 65.0493 290.695 65.9582 293.422 65.9582C296.288 65.9582 298.595 65.0493 300.343 63.2318C302.161 61.3442 303.07 59.0023 303.07 56.206C303.07 53.4796 302.161 51.1727 300.343 49.2852C298.595 47.3978 296.288 46.454 293.422 46.454C290.695 46.454 288.423 47.3978 286.606 49.2852C284.788 51.1727 283.879 53.4796 283.879 56.206C283.879 59.0023 284.788 61.3442 286.606 63.2318Z" fill="white"/>
<path fill-rule="evenodd" clip-rule="evenodd" d="M240.143 93.1172V118.609C240.143 119.455 239.542 120.179 238.712 120.335L223.45 123.187C222.371 123.389 221.373 122.56 221.373 121.463V50.6202C221.373 49.6513 222.16 48.8658 223.129 48.8658H253.042C258.075 48.8658 262.48 49.8096 266.255 51.697C270.099 53.5845 273.105 56.1711 275.272 59.4567C277.439 62.7424 278.523 66.5874 278.523 70.9915C278.523 75.3956 277.404 79.2755 275.167 82.6311C273 85.9168 269.959 88.5034 266.045 90.3908C264.352 91.1771 262.534 91.7933 260.59 92.2394L280.497 119.335C281.466 120.654 280.261 122.464 278.671 122.079L262.216 118.089C261.842 117.998 261.51 117.788 261.267 117.489L241.486 93.1172H240.143ZM240.143 79.695H250.42C253.496 79.695 255.838 78.9609 257.446 77.4929C259.124 75.9549 259.963 73.8927 259.963 71.3061C259.963 68.7894 259.124 66.762 257.446 65.2241C255.838 63.6163 253.496 62.8123 250.42 62.8123H240.143V79.695Z" fill="white"/>
<path d="M327.543 124.68C324.397 124.68 321.286 124.261 318.21 123.422C315.205 122.583 312.372 121.465 309.717 120.066C307.685 118.913 305.891 117.63 304.333 116.219C303.63 115.582 303.639 114.494 304.303 113.815L311.806 106.154C312.499 105.447 313.634 105.46 314.389 106.1C315.766 107.267 317.319 108.217 319.049 108.951C321.426 109.93 323.942 110.419 326.599 110.419C328.137 110.419 329.291 110.21 330.06 109.79C330.899 109.371 331.318 108.777 331.318 108.007C331.318 106.889 330.724 106.05 329.535 105.491C328.417 104.862 326.914 104.337 325.026 103.918C323.208 103.428 321.286 102.869 319.259 102.24C317.231 101.541 315.275 100.632 313.387 99.5137C311.498 98.3952 309.961 96.8222 308.773 94.795C307.654 92.7677 307.095 90.1811 307.095 87.0352C307.095 83.7496 307.969 80.8834 309.717 78.4366C311.534 75.92 314.05 73.9626 317.266 72.5644C320.482 71.0964 324.257 70.3623 328.591 70.3623C332.996 70.3623 337.19 71.1313 341.174 72.6692C344.564 73.9178 347.968 76.3366 350.416 78.8812C351.1 79.5932 350.966 80.7264 350.182 81.3287L341.503 88.005C340.773 88.5662 339.747 88.4525 339.063 87.8365C337.871 86.7639 336.744 86.2053 335.198 85.672C333.171 84.9031 331.318 84.5186 329.64 84.5186C328.032 84.5186 326.879 84.7633 326.18 85.2526C325.481 85.672 325.131 86.2662 325.131 87.0352C325.131 87.9441 325.69 88.678 326.809 89.2373C327.997 89.7966 329.5 90.3209 331.318 90.8103C333.206 91.2296 335.128 91.7889 337.086 92.488C339.113 93.1871 341.034 94.1658 342.852 95.4241C344.74 96.6125 346.243 98.2204 347.361 100.248C348.55 102.275 349.144 104.897 349.144 108.112C349.144 113.215 347.187 117.27 343.273 120.276C339.358 123.212 334.114 124.68 327.543 124.68Z" fill="white"/>
<path fill-rule="evenodd" clip-rule="evenodd" d="M362.85 121.01C367.255 123.247 372.322 124.366 378.055 124.366C382.599 124.366 386.654 123.632 390.219 122.164C393.33 120.907 396.03 119.139 398.321 116.86C398.977 116.209 398.939 115.153 398.285 114.499L391.226 107.442C390.51 106.726 389.345 106.773 388.594 107.453C387.394 108.542 386.083 109.391 384.661 110C382.774 110.839 380.572 111.258 378.055 111.258C375.398 111.258 373.161 110.734 371.345 109.685C369.527 108.637 368.129 107.099 367.15 105.071C366.91 104.558 366.699 104.019 366.518 103.456L401.124 103.295C401.927 103.291 402.631 102.745 402.789 101.959C402.961 101.101 403.07 100.32 403.117 99.6185C403.256 98.5001 403.326 97.4165 403.326 96.3678C403.326 91.4044 402.173 87.0003 399.866 83.1553C397.63 79.2406 394.484 76.1996 390.429 74.0325C386.444 71.7954 381.865 70.6769 376.692 70.6769C371.378 70.6769 366.591 71.8653 362.326 74.2421C358.132 76.549 354.811 79.73 352.364 83.7845C349.917 87.7693 348.694 92.3482 348.694 97.5213C348.694 102.764 349.952 107.413 352.469 111.468C354.986 115.522 358.446 118.703 362.85 121.01ZM366.479 91.6779C366.643 91.1558 366.831 90.6568 367.045 90.1811C367.954 88.1537 369.246 86.5808 370.924 85.4623C372.602 84.3438 374.594 83.7845 376.901 83.7845C379.138 83.7845 380.991 84.2739 382.459 85.2525C383.927 86.2313 385.046 87.6643 385.815 89.5519C386.067 90.1488 386.283 90.8022 386.459 91.5123L366.479 91.6779Z" fill="white"/>
<path d="M131.76 42.6111C131.76 41.5706 132.535 40.6928 133.567 40.5638L145.947 39.0162C147.179 38.8623 148.266 39.8226 148.266 41.0637V81.7822C148.266 83.0233 147.179 83.9834 145.947 83.8295L133.567 82.2821C132.535 82.1529 131.76 81.2753 131.76 80.2346V42.6111Z" fill="white"/>
<path d="M107 47.7695C107 46.7289 107.775 45.8512 108.807 45.722L121.187 44.1746C122.419 44.0206 123.507 44.9809 123.507 46.222V78.6872C123.507 79.9283 122.419 80.8884 121.187 80.7345L108.807 79.1871C107.775 79.058 107 78.1803 107 77.1396V47.7695Z" fill="white"/>
<path d="M171.464 42.4623C172.381 42.6919 173.027 43.5173 173.027 44.464V61.6648C173.027 62.7054 172.251 63.5831 171.219 63.7121L158.839 65.2596C157.607 65.4136 156.52 64.4534 156.52 63.2123V41.369C156.52 40.0266 157.781 39.0417 159.084 39.3673L171.464 42.4623Z" fill="white"/>
<path d="M195.723 49.6223C195.723 48.6755 195.078 47.8503 194.16 47.6206L181.78 44.5257C180.477 44.2001 179.216 45.185 179.216 46.5274V62.1806C179.216 63.4217 180.304 64.382 181.535 64.228L193.915 62.6805C194.948 62.5515 195.723 61.6737 195.723 60.6332V49.6223Z" fill="white"/>
<path d="M195.723 70.7079L155.488 71.7396C156.07 79.3073 162.381 85.1511 169.971 85.1511H179.216V93.9321L107 87.2143V130.23L195.723 124.04V70.7079Z" fill="white"/>
</svg>
