<svg width="510" height="175" viewBox="0 0 510 175" fill="none" xmlns="http://www.w3.org/2000/svg">
<path d="M220.7 116.755C219.51 115.692 218.827 114.578 218.764 113.409L220.7 116.755ZM220.7 116.755L220.706 116.76C222 117.863 223.823 118.389 226.127 118.389H231.169H231.506V118.038V117.348V116.997H231.169H228.637L227.758 116.831L227.742 116.828L227.725 116.826C227.201 116.781 226.618 116.412 225.984 115.589C225.436 114.753 225.141 113.544 225.141 111.924V84.9727C225.141 82.0988 224.436 79.7191 223 77.8638L222.996 77.858C222.056 76.6955 220.582 75.836 218.62 75.2512C216.701 74.6053 214.211 74.2889 211.165 74.2889C208.049 74.2889 205.192 75.4122 202.603 77.6399C200.533 79.3748 198.976 81.2339 197.946 83.2197V74.9844V74.6332H197.608H191.822H191.485V74.9844V118.038V118.389H191.822H197.608H197.946V118.038V87.4698C197.946 85.3194 199.268 82.8229 202.06 79.9711L202.063 79.9687C204.819 77.0977 207.904 75.68 211.33 75.68C213.001 75.68 214.378 75.9603 215.476 76.5034C217.56 77.6728 218.681 80.392 218.681 84.8867V111.924V111.935V111.944L218.764 113.408L220.7 116.755ZM186.274 61.7074L186.585 61.8319L186.708 61.5101L187.039 60.6491L187.172 60.3032L186.833 60.1854C181.18 58.2227 175.606 57.2398 170.111 57.2398C164.664 57.2398 160.517 58.5706 157.73 61.2945C154.954 63.951 153.572 67.4349 153.572 71.7124C153.572 77.1094 155.721 81.2956 160.004 84.2317C161.894 85.563 163.976 86.7771 166.249 87.8746V87.8747L166.256 87.8775C168.516 88.9114 170.749 89.9165 172.955 90.8929L172.958 90.8941C175.204 91.8645 177.257 92.9194 179.115 94.0582C183.214 96.5861 185.232 100.066 185.232 104.519C185.232 108.598 183.685 111.67 180.59 113.783C177.514 115.863 173.778 116.912 169.367 116.912C166.371 116.912 163.429 116.458 160.541 115.549C157.704 114.584 155.401 113.366 153.622 111.907L153.327 111.664L153.127 111.996L152.714 112.685L152.545 112.967L152.806 113.159C157.666 116.708 163.523 118.474 170.359 118.474C174.02 118.474 177.224 118.041 179.964 117.168L179.968 117.166C182.791 116.225 185.188 114.461 187.155 111.885C189.136 109.29 190.122 106.168 190.122 102.538C190.122 98.887 189.538 95.8698 188.348 93.5076C187.168 91.1088 185.617 89.2248 183.691 87.8678C181.799 86.5346 179.715 85.3478 177.438 84.3068C175.172 83.2703 172.905 82.3489 170.638 81.5423C168.446 80.6861 166.421 79.7736 164.561 78.805C160.462 76.5568 158.462 73.421 158.462 69.3875C158.462 66.0452 159.659 63.4544 162.048 61.5738C164.449 59.6839 167.812 58.7171 172.178 58.7171C176.592 58.7171 181.291 59.7107 186.274 61.7074ZM233.272 80.333L233.271 80.3348C229.445 84.379 227.553 90.0461 227.553 97.286C227.553 104.519 229.387 109.941 233.119 113.475C236.829 116.989 241.626 118.733 247.481 118.733C253.402 118.733 258.286 116.722 262.103 112.688C265.985 108.644 267.905 102.977 267.905 95.7361C267.905 88.5025 266.071 83.0806 262.339 79.5465C258.628 76.0327 253.803 74.2889 247.894 74.2889C242.026 74.2889 237.143 76.301 233.272 80.333ZM237.914 81.3942L237.916 81.3921C240.616 77.5672 243.991 75.68 248.059 75.68C252.148 75.68 255.411 77.2983 257.88 80.5413C260.346 83.78 261.609 88.8229 261.609 95.7361C261.609 102.579 260.24 107.892 257.543 111.714C254.844 115.482 251.468 117.342 247.398 117.342C243.31 117.342 240.046 115.723 237.577 112.481C235.111 109.241 233.848 104.227 233.848 97.3721C233.848 90.4693 235.218 85.1577 237.914 81.3942ZM324.225 75.2527L323.979 75.5092L324.233 75.7573C325.027 76.5324 325.449 77.6894 325.449 79.2897C325.449 80.9055 325.128 82.278 324.501 83.4209L324.494 83.434L324.488 83.4478L312.843 109.717L300.477 74.8627L300.396 74.6332H300.161H294.375H293.892L294.058 75.1052L297.069 83.666L285.564 109.715L273.199 74.8627L273.117 74.6332H272.882H267.096H266.611L266.78 75.1069L282.155 118.16L282.237 118.389H282.471H283.298H283.515L283.605 118.183L297.815 85.6342L309.434 118.16L309.515 118.389H309.75H310.576H310.793L310.883 118.183L325.928 83.7405L325.931 83.7335C326.608 82.0879 326.95 80.4624 326.95 78.8592C326.95 78.4301 326.892 77.9774 326.779 77.5024C326.711 76.974 326.462 76.4137 326.069 75.8265C325.901 75.5354 325.741 75.2928 325.59 75.1041C325.442 74.9182 325.282 74.7599 325.11 74.6703L324.893 74.5571L324.721 74.7361L324.225 75.2527Z" fill="white" stroke="white" stroke-width="0.674298"/>
<path d="M339.754 58.3855C341.305 55.9086 343.821 53.9897 347.314 53.82L346.584 112.522V112.526C346.584 113.058 346.743 113.63 347.033 114.234C348.39 117.062 351.628 118.389 356.51 118.389H359.072H359.41V118.038V117.348V116.997H359.072H356.54L355.661 116.831L355.645 116.828L355.629 116.826C355.104 116.781 354.522 116.412 353.888 115.589C353.339 114.753 353.045 113.544 353.045 111.924V53.544V53.1984L352.713 53.1928L347.661 53.1068L347.323 53.101L347.322 53.1115C341.666 53.2175 337.483 54.603 334.854 57.3414C332.168 60.0803 330.868 64.6461 330.868 70.9374V74.6332H329.47H329.133V74.9845V76.3756V76.7269H329.47H330.868V118.038V118.389H331.206H336.992H337.329V118.038V76.7269H343.522H343.859V76.3756V74.9845V74.6332H343.522H337.329V70.9374C337.329 65.0411 338.157 60.8818 339.752 58.3886L339.754 58.3855ZM383.771 96.9896C382.643 96.8955 381.405 96.8487 380.058 96.8487C378.559 96.8487 376.924 96.9353 375.154 97.108C371.59 97.3385 368.64 97.7711 366.312 98.4101C363.988 99.0479 362.251 99.8998 361.144 100.992C360.079 102.043 359.393 103.044 359.149 103.998C358.922 104.883 358.807 105.717 358.807 106.499C358.807 107.207 358.863 107.914 358.976 108.62C359.454 111.956 360.705 114.498 362.757 116.203C364.806 117.904 367.61 118.733 371.13 118.733C374.153 118.733 376.782 118.084 379.005 116.771C380.902 115.65 382.491 114.055 383.771 111.992V112.526C383.771 113.599 384.498 114.778 385.771 116.047C387.251 117.645 389.935 118.389 393.697 118.389H396.259H396.596V118.038V117.348V116.997H396.259H393.727L392.848 116.831L392.832 116.828L392.815 116.826C392.291 116.781 391.709 116.412 391.075 115.589C390.526 114.753 390.231 113.544 390.231 111.924V83.0785C390.231 81.1374 389.472 79.3065 387.997 77.5922C387.029 76.4623 385.57 75.6393 383.659 75.0976C381.747 74.5556 379.359 74.2889 376.503 74.2889C371.381 74.2889 366.346 75.478 361.4 77.8514L361.066 78.0118L361.249 78.3446L361.579 78.9474L361.746 79.2508L362.038 79.0789C363.267 78.3552 365.217 77.618 367.91 76.8738V76.8739L367.914 76.8725C370.651 76.0743 373.016 75.68 375.015 75.68C377.028 75.68 378.631 75.9641 379.84 76.512V76.5122L379.852 76.517C381.089 77.0214 381.901 77.6193 382.343 78.2842C382.823 79.0067 383.195 79.7544 383.46 80.5273L383.465 80.5421L383.471 80.5563C383.786 81.2666 383.866 81.8133 383.78 82.223C383.723 82.4596 383.688 82.6703 383.688 82.8417C383.688 82.9275 383.697 83.0249 383.729 83.1177C383.74 83.1476 383.753 83.1789 383.771 83.2098V96.9896ZM365.432 108.536L365.431 108.531C365.377 107.966 365.35 107.461 365.35 107.016C365.35 104.551 365.968 102.665 367.162 101.312C367.743 100.655 368.683 100.077 370.02 99.5986C371.354 99.1216 373.057 98.7525 375.136 98.496C376.611 98.3252 378.087 98.2399 379.562 98.2399C380.989 98.2399 382.392 98.2893 383.771 98.3879V108.464C383.612 110.275 382.424 112.232 380.086 114.326C377.83 116.341 375.289 117.342 372.453 117.342C370.331 117.342 368.717 116.614 367.565 115.186C366.402 113.742 365.677 111.543 365.432 108.536ZM403.625 53.4579V53.1067H403.287H397.501H397.164V53.4579V118.038V118.389H397.501H403.287H403.625V118.038V97.4174L405.486 95.1907L420.533 118.235L420.633 118.389H420.812H426.598H427.235L426.877 117.84L409.252 90.8564L422.552 75.2173L423.049 74.6332H422.3H421.473H421.322L421.221 74.7514L403.625 95.4137V53.4579ZM459.021 114.971L458.893 114.661L458.59 114.782C454.337 116.486 449.475 117.342 443.997 117.342C440.194 117.342 437.124 115.732 434.761 112.488C432.456 109.249 431.274 104.118 431.274 97.0276C431.274 95.4868 431.345 93.9966 431.488 92.5569H460.695H461.032V92.2056V92.204V92.2023V92.2006V92.199V92.1973V92.1956V92.1939V92.1922V92.1905V92.1889V92.1872V92.1855V92.1839V92.1821V92.1804V92.1788V92.1771V92.1754V92.1738V92.1721V92.1703V92.1687V92.167V92.1653V92.1637V92.162V92.1603V92.1586V92.1569V92.1552V92.1536V92.1519V92.1502V92.1486V92.1468V92.1451V92.1435V92.1418V92.1401V92.1385V92.1368V92.135V92.1334V92.1317V92.13V92.1284V92.1267V92.1249V92.1232V92.1216V92.1199V92.1182V92.1166V92.1149V92.1131V92.1115V92.1098V92.1081V92.1065V92.1048V92.1031V92.1014V92.0997V92.098V92.0964V92.0947V92.093V92.0914V92.0896V92.0879V92.0863V92.0846V92.0829V92.0813V92.0796V92.0778V92.0762V92.0745V92.0728V92.0712V92.0695V92.0678V92.0661V92.0644V92.0627V92.0611V92.0594V92.0577V92.0561V92.0543V92.0526V92.051V92.0493V92.0476V92.046V92.0443V92.0425V92.0409V92.0392V92.0375V92.0359V92.0342V92.0324V92.0307V92.0291V92.0274V92.0257V92.0241V92.0224V92.0207V92.019V92.0173V92.0156V92.014V92.0123V92.0106V92.0089V92.0072V92.0055V92.0039V92.0022V92.0005V91.9989V91.9971V91.9954V91.9938V91.9921V91.9904V91.9888V91.9871V91.9853V91.9837V91.982V91.9803V91.9787V91.977V91.9753V91.9736V91.9719V91.9702V91.9686V91.9669V91.9652V91.9636V91.9618V91.9601V91.9585V91.9568V91.9551V91.9535V91.9518V91.95V91.9483V91.9467V91.945V91.9433V91.9417V91.94V91.9382V91.9366V91.9349V91.9332V91.9316V91.9299V91.9282V91.9265V91.9248V91.9231V91.9215V91.9198V91.9181V91.9165V91.9147V91.913V91.9114V91.9097V91.908V91.9064V91.9046V91.9029V91.9013V91.8996V91.8979V91.8963V91.8946V91.8928V91.8912V91.8895V91.8878V91.8862V91.8845V91.8828V91.8811V91.8794V91.8777V91.8761V91.8744V91.8727V91.8711V91.8693V91.8676V91.866V91.8643V91.8626V91.861V91.8593V91.8575V91.8558V91.8542V91.8525V91.8508V91.8492V91.8475V91.8457V91.8441V91.8424V91.8407V91.8391V91.8374V91.8357V91.834V91.8323V91.8306V91.829V91.8273V91.8256V91.824V91.8222V91.8205V91.8189V91.8172V91.8155V91.8139V91.8122V91.8104V91.8088V91.8071V91.8054V91.8038V91.8021V91.8004V91.7987V91.797V91.7953V91.7937V91.792V91.7903V91.7886V91.7869V91.7852V91.7836V91.7819V91.7802V91.7786V91.7769V91.7751V91.7734V91.7718V91.7701V91.7685V91.7668V91.765V91.7633V91.7617V91.76V91.7584V91.7567V91.755V91.7532V91.7516V91.7499V91.7482V91.7466V91.7449V91.7432V91.7415V91.7398V91.7381V91.7365V91.7348V91.7331V91.7315V91.7297V91.728V91.7264V91.7247V91.723V91.7214V91.7197V91.7179V91.7163V91.7146V91.7129V91.7113V91.7096V91.7079V91.7062V91.7045V91.7028V91.7012V91.6995V91.6978V91.6962V91.6944V91.6927V91.6911V91.6894V91.6877V91.6861V91.6844V91.6826V91.681V91.6793V91.6776V91.676V91.6743V91.6726V91.6709V91.6692V91.6675V91.6659V91.6642V91.6625V91.6607V91.6591V91.6574V91.6557V91.6541V91.6524V91.6507V91.649V91.6473V91.6456V91.644V91.6423V91.6406V91.639V91.6372V91.6355V91.6339V91.6322V91.6305V91.6289V91.6272V91.6254V91.6238V91.6221V91.6204V91.6188V91.6171V91.6154V91.6137V91.612V91.6103V91.6087V91.607V91.6053V91.6037V91.6019V91.6002V91.5986V91.5969V91.5952V91.5936V91.5919V91.5901V91.5885V91.5868V91.5851V91.5835V91.5818V91.5801V91.5784V91.5767V91.575V91.5734V91.5717V91.57V91.5683V91.5666V91.5649V91.5632V91.5616V91.5599V91.5582V91.5566V91.5548V91.5531V91.5515V91.5498V91.5481V91.5465V91.5447V91.543V91.5414V91.5397V91.538V91.5364V91.5347V91.5329V91.5313V91.5296V91.5279V91.5263V91.5246V91.5229V91.5212V91.5195V91.5178V91.5162V91.5145V91.5128V91.5112V91.5094V91.5077V91.5061V91.5044V91.5027V91.5011V91.4994V91.4976V91.496V91.4943V91.4926V91.491V91.4893V91.4876V91.4859V91.4842V91.4825V91.4808V91.4792V91.4775V91.4758V91.4741V91.4724V91.4707V91.4691V91.4674V91.4657V91.4641V91.4623V91.4606V91.459V91.4573V91.4556V91.454V91.4523V91.4505V91.4489V91.4472V91.4455V91.4439V91.4422V91.4405V91.4388V91.4371V91.4354V91.4338V91.4321V91.4304V91.4287V91.427V91.4253V91.4237V91.422V91.4203V91.4187V91.4169V91.4152V91.4136V91.4119V91.4102V91.4086V91.4069V91.4051V91.4035V91.4018V91.4001V91.3985V91.3968V91.3951V91.3933V91.3917V91.39V91.3883V91.3867V91.385V91.3833V91.3816V91.3799V91.3782V91.3766V91.3749V91.3732V91.3716V91.3698V91.3681V91.3665V91.3648V91.3631V91.3615V91.3598V91.358V91.3564V91.3547V91.353V91.3514V91.3497V91.348V91.3463V91.3446C461.032 85.764 459.467 81.4926 456.288 78.5949C453.134 75.7202 449.25 74.2889 444.659 74.2889C438.952 74.2889 434.233 76.3034 430.528 80.3386C426.814 84.383 424.978 90.0489 424.978 97.286C424.978 104.515 426.727 109.935 430.291 113.47C433.835 116.986 438.414 118.733 443.997 118.733C449.598 118.733 454.627 117.838 459.081 116.04L459.406 115.909L459.269 115.574L459.021 114.971ZM451.75 79.5062C453.625 82.0024 454.637 85.869 454.732 91.1656H431.656C432.338 86.3527 433.844 82.5962 436.148 79.8675C438.576 77.0578 441.3 75.68 444.328 75.68C447.362 75.68 449.828 76.9482 451.75 79.5062Z" fill="white" stroke="white" stroke-width="0.674298"/>
<path fill-rule="evenodd" clip-rule="evenodd" d="M88.4814 103.059L88.4454 132.625L94.4454 132.633L94.4815 102.929L105.427 130.358L110.967 127.959L100.097 100.719L120.096 121.605L124.344 117.191L104.259 96.2155L130.528 107.571L132.827 101.799L106.556 90.4414H135V84.1914H106.624L132.852 72.908L130.561 67.1314L104.446 78.3665L124.527 57.662L120.307 53.2199L99.9757 74.1812L110.932 46.6558L105.389 44.2621L94.5197 71.5702L94.5557 42.008L88.5557 42L88.5195 71.7061L77.5732 44.2754L72.0328 46.6744L82.9019 73.9117L62.9043 53.0279L58.6563 57.4417L78.7417 78.4172L52.4727 67.0608L50.1728 72.8334L76.4456 84.1914H48V90.4414H76.3781L50.1493 101.725L52.4396 107.503L78.554 96.2674L58.4729 116.971L62.6937 121.413L83.0236 100.453L72.0683 127.976L77.6107 130.37L88.4814 103.059Z" fill="white"/>
</svg>
