<svg width="510" height="175" viewBox="0 0 510 175" fill="none" xmlns="http://www.w3.org/2000/svg">
<path d="M231.138 58.5341C232.424 59.8839 234.384 60.5589 237.019 60.5589C239.654 60.5589 241.583 59.8839 242.804 58.5341C244.026 57.12 244.636 55.3845 244.636 53.3277C244.636 51.1421 244.026 49.3746 242.804 48.0247C241.583 46.6749 239.654 46 237.019 46C234.384 46 232.424 46.6749 231.138 48.0247C229.916 49.3746 229.306 51.1421 229.306 53.3277C229.306 55.3845 229.916 57.12 231.138 58.5341Z" fill="white"/>
<path d="M169.932 66.8259L186.323 119.18H207.823L221.996 66.8259H209.077L198.412 108.188H196.136L183.72 66.8259H169.932Z" fill="white"/>
<path d="M275.122 120.819C267.924 120.819 262.267 119.309 258.153 116.288C254.104 113.202 251.983 108.959 251.79 103.561H263.841C264.034 105.361 265.031 107 266.83 108.478C268.63 109.956 271.459 110.695 275.315 110.695C278.529 110.695 281.068 110.117 282.932 108.959C284.86 107.803 285.824 106.228 285.824 104.235C285.824 102.5 285.086 101.118 283.607 100.089C282.193 99.061 279.75 98.3861 276.279 98.0647L271.651 97.5826C265.802 96.9398 261.303 95.2687 258.153 92.569C255.004 89.8693 253.429 86.2698 253.429 81.7703C253.429 78.1708 254.328 75.1498 256.128 72.7073C257.928 70.2647 260.403 68.4329 263.553 67.2116C266.766 65.926 270.43 65.2833 274.544 65.2833C280.971 65.2833 286.178 66.6974 290.164 69.5256C294.148 72.3537 296.238 76.4997 296.431 81.9632H284.378C284.249 80.1635 283.35 78.6208 281.679 77.3352C280.007 76.0497 277.598 75.407 274.448 75.407C271.619 75.407 269.434 75.9533 267.892 77.046C266.349 78.1387 265.577 79.5528 265.577 81.2883C265.577 82.9595 266.188 84.2451 267.409 85.1449C268.694 86.0448 270.752 86.6554 273.58 86.9768L278.207 87.4589C284.378 88.1017 289.199 89.805 292.67 92.569C296.206 95.3329 297.973 99.061 297.973 103.754C297.973 107.225 297.009 110.246 295.081 112.816C293.217 115.323 290.581 117.283 287.175 118.697C283.768 120.111 279.75 120.819 275.122 120.819Z" fill="white"/>
<path d="M305.766 58.5341C307.052 59.8839 309.012 60.5589 311.648 60.5589C314.283 60.5589 316.212 59.8839 317.433 58.5341C318.654 57.12 319.265 55.3845 319.265 53.3277C319.265 51.1421 318.654 49.3746 317.433 48.0247C316.212 46.6749 314.283 46 311.648 46C309.012 46 307.052 46.6749 305.766 48.0247C304.545 49.3746 303.935 51.1421 303.935 53.3277C303.935 55.3845 304.545 57.12 305.766 58.5341Z" fill="white"/>
<path fill-rule="evenodd" clip-rule="evenodd" d="M355.921 121.012C351.293 121.012 347.212 120.272 343.677 118.794C340.141 117.316 337.153 115.323 334.709 112.816C332.267 110.246 330.403 107.352 329.118 104.138C327.897 100.925 327.286 97.5826 327.286 94.1116V92.0869C327.286 88.4874 327.929 85.0806 329.214 81.8668C330.564 78.5887 332.46 75.6962 334.902 73.1894C337.41 70.6183 340.431 68.6257 343.966 67.2116C347.501 65.7332 351.486 64.994 355.921 64.994C360.356 64.994 364.342 65.7332 367.876 67.2116C371.412 68.6257 374.401 70.6183 376.844 73.1894C379.35 75.6962 381.247 78.5887 382.532 81.8668C383.817 85.0806 384.461 88.4874 384.461 92.0869V94.1116C384.461 97.5826 383.817 100.925 382.532 104.138C381.311 107.352 379.479 110.246 377.037 112.816C374.594 115.323 371.605 117.316 368.069 118.794C364.535 120.272 360.485 121.012 355.921 121.012ZM355.921 109.538C359.2 109.538 361.963 108.831 364.213 107.417C366.463 105.938 368.166 103.979 369.324 101.536C370.48 99.0288 371.058 96.2006 371.058 93.0511C371.058 89.8372 370.448 87.009 369.227 84.5665C368.069 82.0597 366.334 80.0992 364.02 78.6851C361.77 77.2066 359.071 76.4675 355.921 76.4675C352.772 76.4675 350.04 77.2066 347.726 78.6851C345.477 80.0992 343.741 82.0597 342.519 84.5665C341.298 87.009 340.688 89.8372 340.688 93.0511C340.688 96.2006 341.266 99.0288 342.424 101.536C343.645 103.979 345.38 105.938 347.629 107.417C349.879 108.831 352.643 109.538 355.921 109.538Z" fill="white"/>
<path d="M403.138 75.9854C402.677 77.1371 402.291 78.3844 401.981 79.7273V66.8258H391.375V119.18H404.777V88.423C404.777 85.0163 405.773 82.3167 407.766 80.3241C409.823 78.2672 412.49 77.2388 415.768 77.2388C418.982 77.2388 421.489 78.2351 423.288 80.2276C425.153 82.2203 426.084 84.8235 426.084 88.0374V119.18H439.487V89.1943C439.487 81.224 437.88 75.2462 434.666 71.261C431.452 67.2115 426.727 65.1867 420.493 65.1867H419.914C415.736 65.1867 412.233 66.0867 409.405 67.8864C406.641 69.6862 404.552 72.3858 403.138 75.9854Z" fill="white"/>
<path d="M232.102 76.8532V119.18H245.505V66.8259H224.775V76.8532H232.102Z" fill="white"/>
<path d="M306.731 76.8532V119.18H320.132V66.8259H299.402V76.8532H306.731Z" fill="white"/>
<mask id="mask0_1159_61" style="mask-type:alpha" maskUnits="userSpaceOnUse" x="70" y="46" width="84" height="84">
<path fill-rule="evenodd" clip-rule="evenodd" d="M111.97 129.939C135.149 129.939 153.939 111.149 153.939 87.9698C153.939 64.7905 135.149 46 111.97 46C88.7905 46 70 64.7905 70 87.9698C70 111.149 88.7905 129.939 111.97 129.939ZM142.857 83.6146C138.944 88.1909 133.431 91.0408 127.324 91.0408C115.451 91.0408 105.827 80.2706 105.827 66.9849C105.827 63.6425 106.436 60.4593 107.537 57.5666C92.66 59.8261 81.2598 72.6715 81.2598 88.1795C81.2598 92.7043 82.2303 97.0024 83.9745 100.877C85.7439 99.231 88.2305 98.2066 90.9846 98.2066C96.3553 98.2066 100.709 102.102 100.709 106.908C100.709 110.134 98.7461 112.951 95.8302 114.453C100.585 117.427 106.204 119.145 112.225 119.145C129.327 119.145 143.191 105.281 143.191 88.1795C143.191 86.6286 143.076 85.1043 142.857 83.6146Z" fill="white"/>
</mask>
<g mask="url(#mask0_1159_61)">
<path fill-rule="evenodd" clip-rule="evenodd" d="M111.97 129.939C135.149 129.939 153.939 111.149 153.939 87.9698C153.939 64.7905 135.149 46 111.97 46C88.7905 46 70 64.7905 70 87.9698C70 111.149 88.7905 129.939 111.97 129.939ZM142.857 83.6146C138.944 88.1909 133.431 91.0408 127.324 91.0408C115.451 91.0408 105.827 80.2706 105.827 66.9849C105.827 63.6425 106.436 60.4593 107.537 57.5666C92.66 59.8261 81.2598 72.6715 81.2598 88.1795C81.2598 92.7043 82.2303 97.0024 83.9745 100.877C85.7439 99.231 88.2305 98.2066 90.9846 98.2066C96.3553 98.2066 100.709 102.102 100.709 106.908C100.709 110.134 98.7461 112.951 95.8302 114.453C100.585 117.427 106.204 119.145 112.225 119.145C129.327 119.145 143.191 105.281 143.191 88.1795C143.191 86.6286 143.076 85.1043 142.857 83.6146Z" fill="white"/>
<path d="M142.857 83.6146L145.894 83.1657L144.908 76.4902L140.523 81.6187L142.857 83.6146ZM107.537 57.5666L110.407 58.659L112.279 53.7402L107.076 54.5305L107.537 57.5666ZM83.9744 100.877L81.1741 102.138L82.9315 106.042L86.0662 103.125L83.9744 100.877ZM95.83 114.453L94.4235 111.723L89.6254 114.196L94.2018 117.057L95.83 114.453ZM150.869 87.9698C150.869 109.453 133.453 126.869 111.97 126.869V133.011C136.845 133.011 157.011 112.845 157.011 87.9698H150.869ZM111.97 49.0709C133.453 49.0709 150.869 66.4865 150.869 87.9698H157.011C157.011 63.0945 136.845 42.9291 111.97 42.9291V49.0709ZM73.0709 87.9698C73.0709 66.4865 90.4864 49.0709 111.97 49.0709V42.9291C87.0943 42.9291 66.929 63.0945 66.929 87.9698H73.0709ZM111.97 126.869C90.4864 126.869 73.0709 109.453 73.0709 87.9698H66.929C66.929 112.845 87.0943 133.011 111.97 133.011V126.869ZM127.324 94.1118C134.428 94.1118 140.762 90.7897 145.191 85.6104L140.523 81.6187C137.125 85.5919 132.434 87.9699 127.324 87.9699V94.1118ZM102.756 66.9849C102.756 81.6328 113.439 94.1118 127.324 94.1118V87.9699C117.463 87.9699 108.898 78.9086 108.898 66.9849H102.756ZM104.667 56.4742C103.433 59.715 102.756 63.2685 102.756 66.9849H108.898C108.898 64.0165 109.439 61.2033 110.407 58.659L104.667 56.4742ZM84.3307 88.1795C84.3307 74.2123 94.599 62.6378 107.998 60.6028L107.076 54.5305C90.7206 57.0146 78.1888 71.1307 78.1888 88.1795H84.3307ZM86.7747 99.6164C85.2054 96.1303 84.3307 92.2612 84.3307 88.1795H78.1888C78.1888 93.1474 79.2551 97.8744 81.1741 102.138L86.7747 99.6164ZM90.9845 95.1357C87.4703 95.1357 84.2319 96.4431 81.8826 98.6286L86.0662 103.125C87.2556 102.019 88.9905 101.278 90.9845 101.278V95.1357ZM103.78 106.908C103.78 100.094 97.7212 95.1357 90.9845 95.1357V101.278C94.9893 101.278 97.6382 104.111 97.6382 106.908H103.78ZM97.2364 117.183C101.016 115.235 103.78 111.452 103.78 106.908H97.6382C97.6382 108.817 96.4756 110.666 94.4235 111.723L97.2364 117.183ZM112.225 116.074C106.797 116.074 101.739 114.527 97.4582 111.849L94.2018 117.057C99.4303 120.326 105.612 122.216 112.225 122.216V116.074ZM140.12 88.1795C140.12 103.585 127.63 116.074 112.225 116.074V122.216C131.022 122.216 146.262 106.978 146.262 88.1795H140.12ZM139.819 84.0633C140.016 85.405 140.12 86.7793 140.12 88.1795H146.262C146.262 86.4778 146.136 84.8035 145.894 83.1657L139.819 84.0633Z" fill="white"/>
</g>
</svg>
