<svg width="510" height="175" viewBox="0 0 510 175" fill="none" xmlns="http://www.w3.org/2000/svg">
<path d="M279.502 114.419V53.2243H290.591V114.419H279.502Z" fill="white"/>
<path d="M185.646 54.9171L209.09 114.419H218.231L241.931 54.9171H229.658L213.799 96.6935L198.087 54.9171H185.646Z" fill="white"/>
<path fill-rule="evenodd" clip-rule="evenodd" d="M243.586 112.472C246.915 114.335 250.64 115.266 254.76 115.266C258.878 115.266 262.575 114.335 265.847 112.472C269.177 110.555 271.8 107.986 273.719 104.77C275.638 101.497 276.597 97.858 276.597 93.8518C276.597 89.8454 275.638 86.2623 273.719 83.1024C271.8 79.8861 269.177 77.3469 265.847 75.4848C262.575 73.5662 258.85 72.6069 254.675 72.6069C250.612 72.6069 246.915 73.5662 243.586 75.4848C240.257 77.3469 237.634 79.8861 235.715 83.1024C233.796 86.2623 232.838 89.8454 232.838 93.8518C232.838 97.858 233.796 101.497 235.715 104.77C237.69 107.986 240.313 110.555 243.586 112.472ZM260.177 103.585C258.596 104.488 256.762 104.94 254.675 104.94C252.644 104.94 250.838 104.488 249.258 103.585C247.677 102.626 246.436 101.328 245.533 99.6923C244.63 97.9989 244.179 96.0806 244.179 93.9363C244.179 91.7922 244.63 89.9019 245.533 88.2655C246.436 86.6291 247.677 85.3595 249.258 84.4567C250.838 83.4974 252.644 83.0177 254.675 83.0177C256.762 83.0177 258.596 83.4974 260.177 84.4567C261.756 85.3595 262.997 86.6291 263.9 88.2655C264.803 89.9019 265.254 91.7922 265.254 93.9363C265.254 96.0806 264.803 97.9989 263.9 99.6923C263.054 101.328 261.813 102.626 260.177 103.585Z" fill="white"/>
<path d="M303.97 112.981C306.791 114.504 310.007 115.266 313.619 115.266C317.23 115.266 320.419 114.532 323.183 113.065C326.005 111.542 328.177 109.426 329.7 106.717C331.281 104.009 332.07 100.849 332.07 97.2367V73.538H320.982V96.9833C320.982 99.5231 320.334 101.497 319.035 102.909C317.738 104.319 315.933 105.025 313.619 105.025C312.095 105.025 310.769 104.713 309.641 104.093C308.512 103.472 307.666 102.569 307.102 101.384C306.537 100.143 306.255 98.6765 306.255 96.9833V73.538H295.083V97.2367C295.083 100.793 295.872 103.924 297.453 106.632C299.032 109.341 301.205 111.456 303.97 112.981Z" fill="white"/>
<path d="M336.668 114.419V73.538H347.756V77.0849C348.747 76.1165 349.876 75.3011 351.142 74.6383C353.511 73.3405 356.192 72.6916 359.182 72.6916C362.004 72.6916 364.571 73.3405 366.884 74.6383C368.824 75.6786 370.425 77.0954 371.691 78.8887C373.059 77.1435 374.729 75.7548 376.703 74.723C379.186 73.3687 381.951 72.6916 384.998 72.6916C388.045 72.6916 390.781 73.3405 393.207 74.6383C395.635 75.8797 397.552 77.6854 398.964 80.0553C400.374 82.4252 401.08 85.2466 401.08 88.5194V114.419H389.992V90.2968C389.992 87.9268 389.23 86.093 387.706 84.7952C386.239 83.4409 384.405 82.7638 382.204 82.7638C380.794 82.7638 379.468 83.0742 378.227 83.6949C377.042 84.2592 376.111 85.1056 375.433 86.2341C374.757 87.3626 374.417 88.7169 374.417 90.2968V114.419H363.33V90.2968C363.33 87.9268 362.568 86.093 361.045 84.7952C359.578 83.4409 357.744 82.7638 355.543 82.7638C354.076 82.7638 352.749 83.0742 351.564 83.6949C350.38 84.2592 349.448 85.1056 348.772 86.2341C348.094 87.3626 347.756 88.7169 347.756 90.2968V114.419H336.668Z" fill="white"/>
<path fill-rule="evenodd" clip-rule="evenodd" d="M413.96 112.557C417.289 114.363 421.099 115.266 425.387 115.266C428.717 115.266 431.792 114.673 434.613 113.488C437.491 112.303 439.917 110.555 441.892 108.241L435.375 101.724C434.134 103.134 432.667 104.206 430.974 104.94C429.28 105.617 427.391 105.955 425.303 105.955C422.99 105.955 420.958 105.476 419.208 104.516C417.46 103.501 416.105 102.09 415.145 100.284C414.785 99.5404 414.496 98.7464 414.28 97.9034L444.177 97.8298C444.403 96.8705 444.544 96.0242 444.6 95.2907C444.714 94.5007 444.77 93.7389 444.77 93.0053C444.77 89.1118 443.896 85.6417 442.146 82.5946C440.454 79.491 438.083 77.0647 435.037 75.3155C432.046 73.5097 428.576 72.6069 424.625 72.6069C420.619 72.6069 416.979 73.5662 413.707 75.4848C410.434 77.3469 407.839 79.8861 405.92 83.1024C404.057 86.2623 403.126 89.8736 403.126 93.9363C403.126 98.0553 404.086 101.724 406.004 104.94C407.98 108.155 410.631 110.695 413.96 112.557ZM414.29 89.6067C414.487 88.8584 414.744 88.1574 415.061 87.5038C415.964 85.698 417.233 84.3155 418.87 83.3564C420.506 82.3406 422.425 81.8328 424.625 81.8328C426.713 81.8328 428.463 82.2842 429.873 83.187C431.34 84.0335 432.44 85.2748 433.174 86.9112C433.554 87.6991 433.857 88.5785 434.08 89.5494L414.29 89.6067Z" fill="white"/>
<path fill-rule="evenodd" clip-rule="evenodd" d="M117.5 139.001C145.943 139.001 169 115.943 169 87.5003C169 59.0574 145.943 36 117.5 36C89.0574 36 66 59.0574 66 87.5003C66 115.943 89.0574 139.001 117.5 139.001ZM138.829 55.9781C139.441 56.4951 139.792 57.2549 139.792 58.0554L139.791 68.4023L139.792 69.0831L139.791 69.1644V103.801C139.791 109.816 134.914 114.691 128.9 114.691C122.884 114.691 118.008 109.816 118.008 103.801C118.008 97.7845 122.884 92.9083 128.9 92.9083C130.883 92.9083 132.743 93.4389 134.345 94.3656V72.2972L107.116 76.8364V109.246C107.116 115.261 102.24 120.138 96.2245 120.138C90.2092 120.138 85.3331 115.261 85.3331 109.246C85.3331 103.231 90.2092 98.3542 96.2245 98.3542C98.2083 98.3542 100.069 98.8848 101.67 99.8111L101.671 74.5288L101.67 73.8479L101.671 73.7665V63.5011C101.671 62.1704 102.633 61.0343 103.947 60.8154L136.621 55.3696C137.41 55.238 138.218 55.4607 138.829 55.9781Z" fill="white"/>
</svg>
